<svg xmlns="http://www.w3.org/2000/svg" width="36.518" height="39.711" viewBox="0 0 36.518 39.711">
  <g id="Grupo_93" data-name="Grupo 93" transform="translate(0 0)">
    <path id="Caminho_217" data-name="Caminho 217" d="M74.03,58.365A13.045,13.045,0,0,1,59.023,37.031a1,1,0,0,0-.693-1.8,17.05,17.05,0,1,0,17.162,24.4,1,1,0,0,0-1.461-1.262Zm-2.9-25.445a.768.768,0,0,1-.769.768H68.452V35.6a.769.769,0,1,1-1.537,0V33.688H65a.768.768,0,0,1,0-1.537h1.912V30.239a.769.769,0,0,1,1.537,0v1.912h1.912A.768.768,0,0,1,71.132,32.92Z" transform="translate(-43.182 -29.471)" fill="#fff"/>
    <path id="Caminho_218" data-name="Caminho 218" d="M207.2,110.727a.768.768,0,0,1-.769.768h-1.912v1.913a.769.769,0,0,1-1.537,0V111.5h-1.912a.768.768,0,0,1,0-1.537h1.912v-1.912a.769.769,0,0,1,1.537,0v1.912h1.912A.769.769,0,0,1,207.2,110.727Zm11.326-3.449a.769.769,0,0,1-.769.768h-1.913v1.912a.769.769,0,0,1-1.537,0v-1.912h-1.912a.768.768,0,1,1,0-1.537H214.3V104.6a.769.769,0,0,1,1.537,0v1.912h1.913a.769.769,0,0,1,.769.769Z" transform="translate(-182.004 -95.172)" fill="#fff"/>
  </g>
</svg>
