<svg id="Grupo_92" data-name="Grupo 92" xmlns="http://www.w3.org/2000/svg" width="50.317" height="50.317" viewBox="0 0 50.317 50.317">
  <ellipse id="Elipse_44" data-name="Elipse 44" cx="11.455" cy="11.455" rx="11.455" ry="11.455" transform="translate(13.538 13.538)" fill="#fff"/>
  <path id="Caminho_216" data-name="Caminho 216" d="M27.159,9.741a1.935,1.935,0,0,1-1.935-1.935V3.935a1.935,1.935,0,1,1,3.871,0V7.806A1.935,1.935,0,0,1,27.159,9.741Zm0,42.576a1.935,1.935,0,0,1-1.935-1.935V46.511a1.935,1.935,0,0,1,3.871,0v3.871A1.935,1.935,0,0,1,27.159,52.317ZM7.806,29.094H3.935a1.935,1.935,0,0,1,0-3.871H7.806a1.935,1.935,0,0,1,0,3.871Zm42.576,0H46.511a1.935,1.935,0,1,1,0-3.871h3.871a1.935,1.935,0,0,1,0,3.871ZM10.728,45.524a1.945,1.945,0,0,1-1.355-3.309L12.1,39.467a1.943,1.943,0,0,1,2.748,2.748L12.1,44.944a1.935,1.935,0,0,1-1.374.581ZM40.841,15.411A1.935,1.935,0,0,1,39.467,12.1l2.748-2.729A1.935,1.935,0,0,1,44.944,12.1L42.215,14.85a1.935,1.935,0,0,1-1.374.561Zm2.748,30.113a1.935,1.935,0,0,1-1.374-.581l-2.748-2.729a1.943,1.943,0,0,1,2.748-2.748l2.729,2.748a1.945,1.945,0,0,1-1.355,3.309ZM13.476,15.411A1.935,1.935,0,0,1,12.1,14.85L9.373,12.1A1.935,1.935,0,0,1,12.1,9.373L14.85,12.1a1.935,1.935,0,0,1-1.374,3.309Z" transform="translate(-2 -2)" fill="#fff"/>
</svg>
