<svg xmlns="http://www.w3.org/2000/svg" width="28.704" height="30.435" viewBox="0 0 28.704 30.435">
  <g id="Grupo_106" data-name="Grupo 106" transform="translate(-17.913 -14.283)">
    <g id="Grupo_100" data-name="Grupo 100" transform="translate(17.913 14.283)">
      <ellipse id="Elipse_44" data-name="Elipse 44" cx="4.197" cy="4.197" rx="4.197" ry="4.197" transform="translate(4.96 4.96)" fill="#3d3d3d"/>
      <path id="Caminho_216" data-name="Caminho 216" d="M11.217,4.836a.709.709,0,0,1-.709-.709V2.709a.709.709,0,1,1,1.418,0V4.127A.709.709,0,0,1,11.217,4.836Zm0,15.6a.709.709,0,0,1-.709-.709V18.307a.709.709,0,0,1,1.418,0v1.418A.709.709,0,0,1,11.217,20.434Zm-7.09-8.508H2.709a.709.709,0,1,1,0-1.418H4.127a.709.709,0,1,1,0,1.418Zm15.6,0H18.307a.709.709,0,1,1,0-1.418h1.418a.709.709,0,0,1,0,1.418ZM5.2,17.946a.713.713,0,0,1-.5-1.212l1-1.007a.712.712,0,0,1,1.007,1.007l-1.007,1A.709.709,0,0,1,5.2,17.946ZM16.23,6.913a.709.709,0,0,1-.5-1.212l1.007-1a.709.709,0,0,1,1,1l-1,1.007a.709.709,0,0,1-.5.206Zm1.007,11.032a.709.709,0,0,1-.5-.213l-1.007-1a.712.712,0,0,1,1.007-1.007l1,1.007a.713.713,0,0,1-.5,1.212ZM6.2,6.913a.709.709,0,0,1-.5-.206L4.7,5.7a.709.709,0,0,1,1-1l1.007,1a.709.709,0,0,1-.5,1.212Z" transform="translate(-2 -2)" fill="#3d3d3d"/>
    </g>
    <g id="Grupo_101" data-name="Grupo 101" transform="translate(33.238 30.169)">
      <path id="Caminho_217" data-name="Caminho 217" d="M54.483,40.057a4.779,4.779,0,0,1-5.5-7.816.366.366,0,0,0-.254-.66,6.246,6.246,0,1,0,6.287,8.938.366.366,0,0,0-.535-.462Zm-1.062-9.322a.281.281,0,0,1-.282.281h-.7v.7a.282.282,0,1,1-.563,0v-.7h-.7a.282.282,0,0,1,0-.563h.7v-.7a.282.282,0,0,1,.563,0v.7h.7A.282.282,0,0,1,53.422,30.735Z" transform="translate(-43.182 -29.471)" fill="#3d3d3d"/>
      <path id="Caminho_218" data-name="Caminho 218" d="M202.825,106.357a.281.281,0,0,1-.282.281h-.7v.7a.282.282,0,0,1-.563,0v-.7h-.7a.281.281,0,0,1,0-.563h.7v-.7a.282.282,0,0,1,.563,0v.7h.7A.282.282,0,0,1,202.825,106.357Zm4.15-1.264a.282.282,0,0,1-.282.281h-.7v.7a.282.282,0,0,1-.563,0v-.7h-.7a.282.282,0,1,1,0-.563h.7v-.7a.282.282,0,0,1,.563,0v.7h.7a.282.282,0,0,1,.282.282Z" transform="translate(-193.596 -100.658)" fill="#3d3d3d"/>
    </g>
  </g>
</svg>
